<svg
    width="34"
    height="42"
    viewBox="0 0 34 42"
    fill="none"
    xmlns="http://www.w3.org/2000/svg">
<path
         d="M 28.006609,0.8092145 5.98002,0.8 C 3.1371602,0.79881073 0.8,3.13716 0.8,5.98002 V 36.5212 c 0,2.8429 2.33716,5.18 5.18002,5.18 H 28.0155 c 2.8429,0 5.179165,-2.3371 5.18,-5.18 l 0.009,-30.5719971 C 33.20531,3.1324741 30.904501,0.81042679 28.006609,0.8092145 Z M 31.1208,36.4771 c 9.53e-4,1.744 -1.3682,3.1494 -3.1053,3.1494 H 5.98002 c -1.73879,0 -3.10532,-1.4071 -3.10532,-3.1053 V 5.93595 c 0,-1.73879 1.4071309,-3.1036045 3.10532,-3.10532 L 28.000875,2.808384 c 1.785531,-0.0018 3.102284,1.37692 3.103241,3.1277569 z"
         fill="#a5a7a9"
         stroke="#a5a7a9"
         stroke-width="0.4"
        />
        <path
           d="m 19.23182,11.3366 h 7.35982 c 0.5443,0 1.0374,-0.4353 1.0374,-1.0373 0,-0.59528 -0.4421,-1.03739 -1.0374,-1.03739 h -7.35982 c -0.54425,0 -1.037349,0.43532 -1.037349,1.03739 0,0.602 0.493099,1.0373 1.037349,1.0373 z"
           fill="#a5a7a9"
           stroke="#a5a7a9"
           stroke-width="0.4"
         /><path
           d="m 19.223129,16.877584 h 7.35982 c 0.5443,0 1.0374,-0.4353 1.0374,-1.0373 0,-0.59528 -0.4421,-1.03739 -1.0374,-1.03739 h -7.35982 c -0.54425,0 -1.037349,0.43532 -1.037349,1.03739 0,0.602 0.493099,1.0373 1.037349,1.0373 z"
           fill="#a5a7a9"
           stroke="#a5a7a9"
           stroke-width="0.4"
          />
        <path
           d="m 5.902525,20.956624 c 0,0.5442 0.43532,1.0373 1.03735,1.0373 h 19.65562 c 0.5443,0 1.0374,-0.4353 1.0374,-1.0373 0,-0.5443 -0.4353,-1.0374 -1.0374,-1.0374 H 6.939875 c -0.54425,0 -1.03735,0.4354 -1.03735,1.0374 z"
           fill="#a5a7a9"
           stroke="#a5a7a9"
           stroke-width="0.4"
        />
        <path
           d="m 5.8837093,25.873202 c 0,0.5442 0.43532,1.0373 1.03735,1.0373 H 26.57668 c 0.5443,0 1.0374,-0.4353 1.0374,-1.0373 0,-0.5443 -0.4353,-1.0374 -1.0374,-1.0374 H 6.9210593 c -0.54425,0 -1.03735,0.4354 -1.03735,1.0374 z"
           fill="#a5a7a9"
           stroke="#a5a7a9"
           stroke-width="0.4"
        />
        <path
           d="m 5.8749043,30.977826 c 0,0.5442 0.43532,1.0373 1.03735,1.0373 H 26.567875 c 0.5443,0 1.0374,-0.4353 1.0374,-1.0373 0,-0.5443 -0.4353,-1.0374 -1.0374,-1.0374 H 6.9122543 c -0.54425,0 -1.03735,0.4354 -1.03735,1.0374 z"
           fill="#a5a7a9"
           stroke="#a5a7a9"
           stroke-width="0.4"
        />
        <path
            d="m 6.8593871,17.0673 q -0.4789346,0 -0.8138057,-0.3433 Q 5.7099441,16.380699 5.7099441,15.917857 V 7.4885922 q 0,-0.4628424 0.3356373,-0.8061427 0.3348711,-0.3433003 0.8138057,-0.3433003 h 8.4292659 q 0.478934,0 0.813806,0.3433003 0.335637,0.3433003 0.335637,0.8061427 v 8.4292648 q 0,0.462842 -0.335637,0.806143 -0.334872,0.3433 -0.813806,0.3433 z m 0,-1.149443 H 15.288653 V 7.4885922 H 6.8593871 Z m 0.7662954,-1.149443 h 6.8966745 l -2.298885,-3.065185 -1.724176,2.29889 -1.149449,-1.532591 z M 6.8593871,15.917857 V 7.4885922 Z"
            fill="#a5a7a9"
            stroke-width="0.76"
         />
</svg>
