<svg class="content-heading-btn-img" width="30" height="29" viewBox="0 0 30 29" fill="none" xmlns="http://www.w3.org/2000/svg">
   <path fill="#A5A7A9" stroke="#A5A7A9"  stroke-width="0.2" 
   d="M 3.2460938,1.2792969 A 0.82590935,0.82590935 0 0 0 2.4199219,2.1074219 L 2.4492188,20.238281 A 0.82590935,0.82590935 0 0 0 3.2734375,21.0625 h 3.7871094 l 0.044922,6.455078 a 0.82590935,0.82590935 0 0 0 1.4101563,0.578125 l 7.003906,-6.994141 h 12.179688 a 0.82590935,0.82590935 0 0 0 0.826172,-0.826171 V 2.1054688 A 0.82590935,0.82590935 0 0 0 27.699219,1.2792969 Z M 4.0742187,2.9316406 H 26.873047 V 19.449219 H 15.177734 A 0.82590935,0.82590935 0 0 0 14.59375,19.691406 L 8.7441406,25.533203 8.7070313,20.230469 A 0.82590935,0.82590935 0 0 0 7.8808594,19.410156 h -3.78125 z"/>

   <path fill="#A5A7A9" stroke="#A5A7A9"  stroke-width="1.5" 
      d="M 8.0573765,6.5547755 H 13.656047 M 8.1338615,10.770541 H 20.646739 M 8.0637134,15.056176 h 9.2246446"/>
</svg>