<?xml version="1.0" encoding="UTF-8"?>
<svg xmlns="http://www.w3.org/2000/svg" width="32" height="32"  viewBox="0 0 32 32">
  <path   class="fill"
          fill="#a5a7a9"
          d="m 30.723981,8.5668662 h -2.438234 c -0.0087,0 -0.01495,0.00498 -0.02367,0.00498 V 3.5084977 H 23.472822 V 1.3829865 c 0,-0.66905026 -0.524524,-1.2110183 -1.171149,-1.2110183 -0.646624,0 -1.171149,0.54196804 -1.171149,1.2110183 v 2.1255112 h -4.789253 v 4.0778425 h 1.212264 c 1.171149,0 2.119282,0.981772 2.119282,2.1915442 v 0 c 0,1.2110176 -0.949378,2.1915436 -2.119282,2.1915436 h -1.212264 v 3.86604 h 3.824923 v -1.169904 c 0,-1.211018 0.949379,-2.191545 2.119282,-2.191545 1.169904,0 2.119282,0.981773 2.119282,2.191545 v 1.169904 h 3.856072 v -4.850303 c 0.0087,0 0.01495,0.005 0.02367,0.005 h 2.438234 c 0.646624,0 1.171149,-0.541968 1.171149,-1.2110183 0,-0.6690502 -0.524525,-1.2110181 -1.171149,-1.2110181 z"
          id="path2"
          style="stroke-width:0.12459" />
  <path   class="stroke"
          fill="none"
          stroke="#a5a7a9"
          stroke-width="1.2459"
          d="M 17.593404,8.9468668 14.89976,8.9655554 14.915952,3.970728 H 10.602639 V 2.0183972 c 0,-0.6142304 -0.494624,-1.38544471 -1.1125918,-1.38544471 -0.617968,0 -1.123805,0.77121431 -1.123805,1.38544471 V 3.9707281 H 3.7937763 V 7.315979 L 5.0047945,7.299783 c 3.2929229,-0.023671 3.062431,4.790499 -0.079737,4.811679 l -1.1312803,0.01619 v 3.263022 H 6.980798 c 0,0 -0.1906235,-3.46112 2.4706265,-3.46112 2.6612495,0 2.5815125,3.46112 2.5815125,3.46112 h 2.836922 l 0.04734,-4.774303 2.631348,-0.01371 c 0.617969,0 0.960592,-0.266622 0.929444,-0.8808531 -0.0299,-0.6079948 -0.26662,-0.7749459 -0.883342,-0.7749459 z"
          id="path4" />
  <path   class="fill"
          fill="#a5a7a9"
          d="m 8.264078,14.07999 v 2.521708 c 0,0.0087 0.00498,0.01619 0.00498,0.02492 H 3.2842017 V 21.57908 H 1.1923296 C 0.53324671,21.579082 0,22.12105 0,22.790101 c 0,0.66905 0.53324671,1.211018 1.1923296,1.211018 h 2.0918721 v 4.952467 H 7.297257 v -1.253379 c 0,-1.211019 0.9655751,-2.191545 2.1579048,-2.191545 v 0 c 1.1910842,0 2.1579042,0.981772 2.1579042,2.191545 v 1.253379 h 3.80499 v -3.955744 h -1.151215 c -1.191083,0 -2.157905,-0.981772 -2.157905,-2.191545 0,-1.209771 0.965576,-2.191544 2.157905,-2.191544 h 1.151215 v -3.988137 h -4.774302 c 0,-0.0087 0.005,-0.01619 0.005,-0.02492 v -2.521708 c 0,-0.669051 -0.533247,-1.211019 -1.1923297,-1.211019 -0.6590831,0 -1.1923299,0.541968 -1.1923299,1.211019 z"
          id="path6"
          style="stroke-width:0.12459" />
  <path   class="fill"
          fill="#a5a7a9"
          d="m 17.281928,19.728916 h 1.501313 l -0.01744,2.717315 c 0.289049,-0.02991 0.295278,0.02741 0.397443,-0.09718 0.102164,-0.124592 0.259147,-0.472199 0.472196,-1.042823 0.26787,-0.725115 0.538231,-1.176133 0.808592,-1.35305 0.267869,-0.176919 0.701444,-0.265378 1.299478,-0.265378 0.02866,0 0.317705,-0.0012 0.413639,-0.005 v 1.00669 l -0.408656,-0.01001 c -0.266623,0 -0.459738,0.03488 -0.581837,0.102164 -0.122098,0.06853 -0.221771,0.17318 -0.29777,0.313967 -0.076,0.140788 -0.188132,0.428591 -0.33764,0.864657 -0.07725,0.231738 -0.163214,0.424853 -0.25541,0.580592 -0.09095,0.155737 -0.254165,0.301508 -0.487149,0.438558 0.287804,0.08596 0.741313,0.08223 0.928198,0.341377 0.188132,0.259148 0.404919,0.681509 0.630427,1.153706 l 0.809837,1.957315 H 20.47518 l -0.76623,-1.733052 c -0.01122,-0.02492 -0.03613,-0.07102 -0.07351,-0.142033 -0.01495,-0.02491 -0.06853,-0.129574 -0.161967,-0.315214 -0.16695,-0.328917 -0.459738,-0.73882 -0.679018,-0.742558 l -0.02118,2.932857 h -1.492591 v -6.702963 z"
          id="path8"
          style="stroke-width:0.12459" />
  <path   class="fill"
          fill="#a5a7a9"
          d="m 22.745215,19.728916 h 5.101974 l 0.09594,6.702961 h -1.589773 l -0.01246,-5.363615 -2.115544,0.01246 v 5.3524 H 22.74522 v -6.702961 z"
          id="path10"
          style="stroke-width:0.12459" />
</svg>