<svg  width="32" height="28" viewBox="0 0 32 28" fill="none" xmlns="http://www.w3.org/2000/svg">
  <path class="stroke"
    fill="none" stroke="#a5a7a9" stroke-width="1" stroke-linecap="round" stroke-linejoin="miter" stroke-miterlimit="4" stroke-dasharray="none" stroke-opacity="1"
    d="m 7.9650924,4.0426362 c 0.0018,-2.2362861 -0.274023,-3.24852532 0.8747514,-3.23870752 1.1424118,0.00976 1.0799738,0.39429822 1.0495328,3.26271102 1.2328774,0.04595 2.9111924,0.03607 4.2376364,0.028338 -0.02187,1.482514 -0.03752,2.3848204 -0.01636,4.2078339 1.936646,0.060883 3.016734,-0.2066661 3.000894,0.8987352 -0.01584,1.1054012 -1.16035,0.8618782 -2.9142,0.8639332 0.02025,1.326718 -0.01595,2.198177 0.0031,4.008808 -2.196674,0.04559 -2.725358,0.01336 -2.937236,0.01262 -0.06995,-3.17047 -2.2536222,-3.117191 -2.4803092,-3.109094 -0.226688,0.0081 -2.1859114,-0.02628 -2.2564014,3.109313 -0.922068,-0.01048 -1.546019,-0.0496 -3.093433,-0.04303 -0.03351,-1.625614 0.01282,-1.884026 -2.36e-4,-2.749438 3.197759,-0.05147 3.028041,-1.8353441 3.025516,-2.2186451 -0.0033,-0.5069102 0.106834,-2.1143287 -2.981299,-2.1171115 -0.0169,-1.3347978 0.0084,-2.9034781 0.0084,-2.9034781 0,0 2.940285,-4.41e-5 4.479596,-0.012788 z"
  />
  <path class="fill"
    fill="#a5a7a9" stroke="#a5a7a9" stroke-width="1" stroke-linecap="round" stroke-linejoin="miter" stroke-miterlimit="4" stroke-dasharray="none" stroke-opacity="1"
    d="m 21.684823,4.1609097 c 0.0018,-2.2362861 -0.274023,-3.24852529 0.874751,-3.23870749 1.142412,0.00976 1.079974,0.39429819 1.049533,3.26271099 1.232877,0.04595 2.911192,0.03607 4.237636,0.028338 -0.02187,1.482514 -0.03752,2.3848204 -0.01636,4.2078339 1.936646,0.060883 3.016734,-0.2066661 3.000894,0.8987352 -0.01584,1.1054007 -1.16035,0.8618777 -2.9142,0.8639327 0.02025,1.326718 -0.01595,2.198177 0.0031,4.008808 -2.196674,0.04559 -2.725358,0.01336 -2.937236,0.01262 -0.06995,-3.17047 -2.253622,-3.117191 -2.480309,-3.109094 -0.226688,0.0081 -2.185911,-0.02628 -2.256401,3.109313 -0.922068,-0.01048 -1.546019,-0.0496 -3.093433,-0.04303 -0.03351,-1.625614 0.01282,-1.884026 -2.36e-4,-2.749438 3.197759,-0.05147 3.028041,-1.8353436 3.025516,-2.2186446 -0.0033,-0.5069102 0.106834,-2.1143287 -2.981299,-2.1171115 -0.0169,-1.3347978 0.0084,-2.9034781 0.0084,-2.9034781 0,0 2.940285,-4.41e-5 4.479596,-0.012788 z"
  />
  <path class="fill"
    fill="#a5a7a9" fill-opacity="1" stroke="#a5a7a9" stroke-width="0.9" stroke-linecap="round" stroke-linejoin="miter" stroke-miterlimit="4" stroke-dasharray="none" stroke-opacity="1"
    d="M 3.6865672,22.612557 C 1.45028,22.612132 0.43821244,22.888601 0.44731564,21.739821 c 0.00905,-1.142417 0.3936258,-1.080219 3.26205786,-1.051562 0.04518,-1.232905 0.034253,-2.911214 0.025701,-4.237653 1.4825277,0.02094 2.384843,0.03604 4.2078445,0.01372 0.059673,-1.936683 -0.2085439,-3.016604 0.8968667,-3.001451 1.1054096,0.01515 0.862599,1.159813 0.865745,2.913661 1.3267043,-0.02107 2.1981863,0.01458 4.0088053,-0.0056 0.04696,2.196644 0.01505,2.725348 0.01447,2.937226 -3.170426,0.07192 -3.115788,2.255561 -3.10755,2.482243 0.0082,0.226683 -0.02492,2.185927 3.110716,2.254466 -0.0099,0.922074 -0.04864,1.546049 -0.04111,3.093459 -1.625592,0.03453 -1.884033,-0.01168 -2.749437,0.0019 -0.05346,-3.197726 -1.8372273,-3.026899 -2.2205263,-3.024135 -0.5069072,0.0037 -2.1143943,-0.105519 -2.1152552,2.982616 -1.3347875,0.01774 -2.9034831,-0.0066 -2.9034831,-0.0066 0,0 -0.00188,-2.940285 -0.015573,-4.479587 z"
  />
  <path class="stroke" fill="#000000" fill-opacity="1" stroke="#a5a7a9" stroke-width="2" stroke-dasharray="none" stroke-opacity="1" d="m 17.285592,16.912857 -0.06117,9.739353 m 4.609276,-9.493706 c -1.515937,0.01332 -1.916889,2.505789 -4.001876,3.632909 m 4.379364,6.02232 c -0.0077,-1.826054 -3.16904,-5.19047 -4.195868,-6.206804"/>
  <path class="stroke" fill="none" fill-opacity="1" stroke="#a5a7a9" stroke-width="2" stroke-dasharray="none" stroke-opacity="1"  d="m 24.769342,27.030685 10e-7,-9.832988 2.861319,0.03098 2.788267,0.03019 0.06691,9.961058" />
</svg>
