<svg width="26" height="26" viewBox="-2 -2 26 26" fill="none" xmlns="http://www.w3.org/2000/svg">
    <path class="stroke fill" d="m 24.69447,23.222833 -7.109243,-7.109438 c 1.376999,-1.701013 2.206124,-3.862444 2.206124,-6.2165905 0,-5.4562351 -4.439495,-9.895827938 -9.8956769,-9.895827938 C 4.4394945,9.76562e-4 0,4.4405194 0,9.8967545 c 0,5.4562605 4.4395445,9.8957985 9.8957252,9.8957985 2.3541218,0 4.5156318,-0.829133 6.2166298,-2.206269 l 7.10924,7.109436 c 0.203125,0.203127 0.46975,0.305257 0.7365,0.305257 0.266625,0 0.53325,-0.102125 0.736374,-0.305257 0.407374,-0.407254 0.407374,-1.065634 10e-7,-1.472887 z M 9.8957252,17.709284 c -4.3082946,0 -7.8124028,-3.504154 -7.8124028,-7.8125295 0,-4.3083376 3.5041082,-7.8124804 7.8124028,-7.8124804 4.3082568,0 7.8123768,3.5041428 7.8123768,7.8124804 0,4.3083755 -3.50412,7.8125295 -7.8123768,7.8125295 z" fill="#A5A7A9" stroke="#A5A7A9" />
</svg>
